<?xml version="1.0" encoding="utf-8"?>
<!-- Generator: Adobe Illustrator 20.1.0, SVG Export Plug-In . SVG Version: 6.00 Build 0)  -->
<svg version="1.1" id="Capa_1" xmlns="http://www.w3.org/2000/svg" xmlns:xlink="http://www.w3.org/1999/xlink" x="0px" y="0px"
	 viewBox="0 0 113.1 90" enable-background="new 0 0 113.1 90" xml:space="preserve">
<rect fill="#4CA0C4" width="113.1" height="90"/>
<path fill="#9BAF30" d="M67.9,30.1c0,0,6.8-12.7,10.9-9.8s0.3,6.3-2.6,4.2c0,0,4.2,3.9,6.7,0.4c1.2-1.7,1.1-4.1-0.2-5.8
	c-1.2-1.5-3.1-3-6.1-2.9c-5.8,0.2-13.3,8-14.2,9.4S67.9,30.1,67.9,30.1z"/>
<path fill="#9BAF30" d="M45.2,30.1c0,0-6.8-12.7-10.9-9.8s-0.3,6.3,2.6,4.2c0,0-4.2,3.9-6.7,0.4c-1.2-1.7-1.1-4.1,0.2-5.8
	c1.2-1.5,3.1-3,6.1-2.9c5.8,0.2,13.3,8,14.2,9.4S45.2,30.1,45.2,30.1z"/>
<path fill="#9BAF30" d="M32.7,52.4c0,0-4.7-3-5.7-8.7c-0.9-4.9,3.7-10,0.7-11.9c-1.3-0.8-2.9-0.7-4.2,0.1c-1,0.7-1.9,1.9-1.7,4.3
	c0,0-2.6-4.6,0.8-7.7c1.9-1.8,4.7-2.2,7.1-1.2c1.8,0.8,3.5,2.4,3.6,5.9c0.1,1.5-0.3,3-0.8,4.4c-0.8,2-2,5.9-0.5,7.4
	c2.1,2.1,6.5,3.4,6.5,3.4L32.7,52.4z"/>
<path fill="#9BAF30" d="M80.7,52.4c0,0,4.7-3,5.7-8.7c0.9-4.9-3.7-10-0.7-11.9c1.3-0.8,2.9-0.7,4.2,0.1c1,0.7,1.9,1.9,1.7,4.3
	c0,0,2.6-4.6-0.8-7.7c-1.9-1.8-4.7-2.2-7.1-1.2c-1.8,0.8-3.5,2.4-3.6,5.9c-0.1,1.5,0.3,3,0.8,4.4c0.8,2,2,5.9,0.5,7.4
	c-2.1,2.1-6.5,3.4-6.5,3.4L80.7,52.4z"/>
<path fill="#A2B631" d="M75,61.2c0,0,15.7-2.4,14.1-13.1c0,0-0.2-2.1-2.2-2.7c-1.9-0.6-4,0.7-4,2.8c0,0.8,0.3,1.6,1.3,2.2
	c0,0-4.7-1.4-3.8-5.2c0.5-2.1,2.4-3.5,4.5-3.8c2-0.2,4.7,0.2,6.7,2.9c1,1.3,1.4,3,1.5,4.6c0.2,4.2-0.9,12.9-8.4,16.6
	c-9,4.4-17.4,6.8-17.4,6.8L75,61.2z"/>
<path fill="#1F424D" d="M74.6,26c0,0,2.1,4.9,5.2,7.2L63.6,45.5C63.6,45.5,57.3,30.5,74.6,26z"/>
<path fill="#A2B631" d="M38.4,61.2c0,0-15.7-2.4-14.1-13.1c0,0,0.2-2.1,2.2-2.7c1.9-0.6,4,0.7,4,2.8c0,0.8-0.3,1.6-1.3,2.2
	c0,0,4.7-1.4,3.8-5.2c-0.5-2.1-2.4-3.5-4.5-3.8c-2-0.2-4.7,0.2-6.7,2.9c-1,1.3-1.4,3-1.5,4.6c-0.2,4.2,0.9,12.9,8.4,16.6
	c9,4.4,17.4,6.8,17.4,6.8L38.4,61.2z"/>
<path fill="#1F424D" d="M38.5,26c0,0-0.8,1.8-2,3.7c-0.8,1.3-1.9,2.6-3.2,3.5l16.1,12.3C49.4,45.5,55.7,30.5,38.5,26z"/>
<g>
	<g>
		<path fill="#B0C431" d="M79.8,33.2c-7.5-0.4-16,10.4-16,10.4C62.7,30.1,74.6,26,74.6,26c-3.7-6.4-11.3-9.3-15.3-10.4
			c-1.8-0.5-3.7-0.5-5.5,0c-4.1,1.1-11.6,4-15.3,10.4c0,0,11.9,4.2,10.9,17.6c0,0-8.5-10.8-16-10.4c0,0-2.3,5-0.6,19.3
			c0,0,1.5,17.6,11.2,21.7c0,0,9.7,1,12.7,0.6c3,0.4,12.7-0.6,12.7-0.6c9.6-4.2,11.2-21.7,11.2-21.7C82.1,38.1,79.8,33.2,79.8,33.2z
			"/>
		<path fill="#FFFFFF" d="M75.8,62.3c-1.9-3.3-6.2-4.3-9.3-2.2c0,0-0.1,0.1-0.1,0.1c-4.9,3.4-9.8,3.1-9.8,3.1s-4.8,0.3-9.8-3.1
			c0,0-0.1-0.1-0.1-0.1c-3.2-2.1-7.4-1-9.3,2.2l-1.5,2.6c0,0,2.8,7.8,8.1,9.3c0,0,4.9,1.1,10.2,0.9c1.7-0.1,3.3-0.1,5,0
			c5.3,0.3,10.2-0.9,10.2-0.9c5.2-1.5,8.1-9.3,8.1-9.3L75.8,62.3z"/>
		<path fill="#F2F2F2" d="M80,33.6l-0.2-0.5c0,0-7-0.9-16,10.4c0,0-1.7-12.1,10.9-17.6l-0.3-0.5L74,25c0,0-13.5,4.8-10.4,19.1
			C63.6,44.1,73,33.1,80,33.6z"/>
		<g>
			<path fill="#963A1F" d="M50.7,26.2L50.7,26.2C50.7,26.3,50.7,26.2,50.7,26.2z"/>
			<polygon fill="#963A1F" points="50.4,26.6 50.4,26.6 50.4,26.7 			"/>
			<path fill="#963A1F" d="M50.1,27c0.1,0,0.1-0.1,0.2-0.2l0,0l0,0C50.2,26.9,50.2,27,50.1,27z"/>
			<path fill="#963A1F" d="M49.9,27.1C49.9,27.1,49.8,27.2,49.9,27.1C49.9,27.1,49.9,27.1,49.9,27.1C49.9,27.1,49.9,27.1,49.9,27.1z
				"/>
			<path fill="#963A1F" d="M49.9,27.1C49.9,27.1,49.8,27.1,49.9,27.1L49.9,27.1z"/>
			<path fill="#963A1F" d="M49.7,27.3L49.7,27.3C49.7,27.2,49.7,27.3,49.7,27.3C49.7,27.3,49.7,27.3,49.7,27.3z"/>
			<path fill="#963A1F" d="M49.8,27.4L49.8,27.4C49.8,27.3,49.8,27.3,49.8,27.4z"/>
			<path fill="#963A1F" d="M49.8,27.3L49.8,27.3C49.8,27.3,49.8,27.4,49.8,27.3C49.8,27.3,49.8,27.3,49.8,27.3z"/>
			<path fill="#963A1F" d="M49.8,27.2C49.9,27.2,49.9,27.2,49.8,27.2C50,27.2,49.9,27.1,49.8,27.2z"/>
			<path fill="#963A1F" d="M50.2,27.1L50.2,27.1L50.2,27.1C50.2,27,50.2,27.1,50.2,27.1z"/>
			<path fill="#963A1F" d="M49.4,27.6C49.5,27.6,49.5,27.6,49.4,27.6l0.1,0C49.5,27.6,49.5,27.6,49.4,27.6z"/>
			<path fill="#963A1F" d="M49.5,27.6L49.5,27.6C49.6,27.6,49.6,27.6,49.5,27.6z"/>
			<polygon fill="#963A1F" points="49.8,27.4 49.9,27.3 49.8,27.5 			"/>
			<polygon fill="#963A1F" points="49.3,27.8 49.2,27.7 49.3,27.8 			"/>
			<path fill="#963A1F" d="M49.1,27.9c0,0-0.1,0-0.1-0.1c0,0,0,0.1,0,0.1C49,28,49.1,28,49.1,27.9z"/>
			<path fill="#963A1F" d="M49,28.1C49,28.1,49,28.1,49,28.1C49,28.1,49,28.1,49,28.1z"/>
			<path fill="#963A1F" d="M49.4,27.8C49.4,27.8,49.4,27.8,49.4,27.8L49.4,27.8L49.4,27.8z"/>
			<path fill="#963A1F" d="M49.4,27.8L49.4,27.8C49.4,27.8,49.4,27.8,49.4,27.8C49.4,27.8,49.4,27.8,49.4,27.8z"/>
			<path fill="#963A1F" d="M49.4,27.8L49.4,27.8C49.4,27.8,49.4,27.8,49.4,27.8z"/>
			<path fill="#963A1F" d="M49.7,27.6C49.7,27.6,49.7,27.7,49.7,27.6C49.8,27.6,49.7,27.6,49.7,27.6z"/>
			<path fill="#963A1F" d="M49.5,27.8L49.5,27.8C49.6,27.7,49.5,27.7,49.5,27.8L49.5,27.8z"/>
			<polygon fill="#963A1F" points="49.5,27.8 49.5,27.8 49.5,27.8 			"/>
			<path fill="#963A1F" d="M49.2,28c0,0,0,0.1,0,0.1C49.2,28.1,49.2,28.1,49.2,28C49.2,28,49.2,28,49.2,28z"/>
			<path fill="#963A1F" d="M49.3,27.9L49.3,27.9C49.3,27.9,49.3,27.9,49.3,27.9z"/>
			<polygon fill="#963A1F" points="48.9,28.5 48.9,28.5 48.9,28.5 			"/>
			<path fill="#963A1F" d="M49.3,28.1C49.3,28,49.3,28,49.3,28.1C49.3,28,49.3,28,49.3,28.1C49.3,28.1,49.3,28.1,49.3,28.1z"/>
			<path fill="#963A1F" d="M49,28.2C49,28.2,49.1,28.2,49,28.2C49,28.2,49,28.2,49,28.2z"/>
			<path fill="#963A1F" d="M49.3,27.9L49.3,27.9C49.3,27.9,49.3,27.9,49.3,27.9z"/>
			<path fill="#963A1F" d="M49.3,27.9C49.3,28,49.3,28,49.3,27.9C49.3,28,49.3,28,49.3,27.9C49.3,27.9,49.3,27.9,49.3,27.9z"/>
			<path fill="#963A1F" d="M49.4,28.9c-0.1,0-0.1-0.2,0-0.2c0-0.1-0.3-0.2-0.5-0.2c0,0,0.1,0,0.1,0.1c0.1,0,0.2-0.1,0.2,0
				c0,0.1-0.1,0.1-0.1,0.1C49.2,28.7,49.2,28.9,49.4,28.9L49.4,28.9C49.3,28.8,49.3,28.9,49.4,28.9z"/>
			<path fill="#963A1F" d="M49,28.4L49,28.4c0,0-0.1,0-0.2,0c0,0.1,0,0.1,0,0.1L49,28.4L49,28.4z"/>
			<path fill="#963A1F" d="M49.1,28.2c0.1,0.1,0.1,0.1,0.2,0.1c0-0.1,0-0.1,0-0.1C49.2,28.4,49.2,28.2,49.1,28.2
				C49.1,28.2,49.1,28.2,49.1,28.2C49.1,28.2,49.1,28.2,49.1,28.2L49.1,28.2L49.1,28.2L49.1,28.2C49.1,28.2,49.1,28.2,49.1,28.2
				L49.1,28.2C49.1,28.2,49.1,28.2,49.1,28.2C49.1,28.3,49.1,28.2,49.1,28.2L49.1,28.2L49.1,28.2L49,28.3
				C49.1,28.3,49.1,28.3,49.1,28.2z"/>
			<path fill="#963A1F" d="M49.9,27.8C49.8,27.8,49.8,27.8,49.9,27.8C49.8,27.8,49.8,27.8,49.9,27.8z"/>
			<path fill="#963A1F" d="M49.8,27.8C49.8,27.8,49.8,27.8,49.8,27.8C49.8,27.7,49.8,27.8,49.8,27.8C49.8,27.8,49.8,27.7,49.8,27.8
				L49.8,27.8c-0.1,0-0.2,0-0.2,0C49.7,27.8,49.7,27.8,49.8,27.8z"/>
			<path fill="#963A1F" d="M49.5,28l0,0.1l0.1,0L49.5,28C49.6,28.1,49.5,28.1,49.5,28z"/>
			<polygon fill="#963A1F" points="48.9,28.5 48.8,28.4 48.9,28.5 			"/>
			<polygon fill="#963A1F" points="48.8,28.6 48.7,28.6 48.7,28.6 			"/>
			<path fill="#963A1F" d="M45.8,37.2L45.8,37.2C45.8,37.2,45.8,37.2,45.8,37.2z"/>
			<path fill="#963A1F" d="M46,37L46,37C45.9,36.9,45.9,37,46,37z"/>
			<path fill="#963A1F" d="M46.6,31.8c-0.1,0-0.4-0.1-0.2,0L46.6,31.8C46.5,31.9,46.6,31.8,46.6,31.8z"/>
			<path fill="#963A1F" d="M46.2,34.6L46.2,34.6C46.2,34.6,46.1,34.6,46.2,34.6C46.1,34.6,46.1,34.6,46.2,34.6z"/>
			<path fill="#963A1F" d="M46.8,35l-0.1,0C46.7,35,46.7,35,46.8,35z"/>
			<path fill="#963A1F" d="M45.2,38.5l0.1,0.1C45.4,38.5,45.3,38.5,45.2,38.5z"/>
			<path fill="#963A1F" d="M47.9,30c-0.1,0-0.1,0-0.1,0.1C47.8,30,48,30,47.9,30z"/>
			<path fill="#963A1F" d="M44.3,36.2C44.3,36.2,44.3,36.3,44.3,36.2C44.3,36.2,44.3,36.2,44.3,36.2z"/>
			<path fill="#963A1F" d="M47.7,30.1C47.7,30.1,47.7,30.1,47.7,30.1c0,0,0-0.1,0.1-0.1C47.7,30,47.6,30,47.7,30.1z"/>
			<path fill="#963A1F" d="M42.2,42.7C42.2,42.7,42.2,42.7,42.2,42.7C42.2,42.7,42.2,42.7,42.2,42.7z"/>
			<path fill="#963A1F" d="M41,43.7C41.1,43.7,41.1,43.7,41,43.7C41.1,43.7,41.1,43.7,41,43.7z"/>
			<path fill="#963A1F" d="M48.4,29.1C48.4,29.1,48.4,29.1,48.4,29.1L48.4,29.1z"/>
			<path fill="#963A1F" d="M48.8,29.2C48.8,29.2,48.9,29.2,48.8,29.2C48.9,29.2,48.8,29.2,48.8,29.2z"/>
			<path fill="#963A1F" d="M48.2,30.8L48.2,30.8C48.3,30.8,48.3,30.8,48.2,30.8z"/>
			<path fill="#963A1F" d="M48.4,29.1C48.4,29.1,48.4,29.1,48.4,29.1C48.4,29.1,48.4,29.1,48.4,29.1z"/>
			<path fill="#963A1F" d="M48.4,29.1C48.4,29.1,48.4,29,48.4,29.1C48.4,29,48.4,29,48.4,29.1z"/>
			<path fill="#963A1F" d="M48.3,29.1C48.3,29.1,48.4,29.1,48.3,29.1C48.4,29.1,48.4,29.1,48.3,29.1C48.4,29.1,48.3,29.1,48.3,29.1z
				"/>
			<path fill="#963A1F" d="M43.5,40.2C43.5,40.2,43.5,40.2,43.5,40.2C43.5,40.3,43.5,40.3,43.5,40.2z"/>
			<polygon fill="#963A1F" points="47.7,33.4 47.7,33.4 47.7,33.4 			"/>
			<path fill="#963A1F" d="M47.7,33.6c-0.2-0.1-0.1-0.2-0.1-0.2l-0.4-0.2L47.7,33.6z"/>
			<path fill="#963A1F" d="M45.5,37.7l0.2,0c0.2,0.2,0.1,0.2,0.3,0.3c-0.5-0.3,0.1-0.3-0.3-0.6l0.1,0c0,0,0,0,0,0
				c0.3,0-0.3-0.3-0.2-0.3c0.1,0,0.1,0,0.2,0L45.8,37c0,0,0.1,0,0.1,0.1l0-0.2l0,0c-0.1-0.1-0.2-0.2-0.2-0.2c0.1,0,0,0,0.1,0.1
				l-0.1-0.1c0.1,0,0.2,0.2,0.2,0.2c0.5,0.2-0.1-0.1,0.3-0.1l0,0.1c0.3,0.1,0.2,0,0.5,0c-0.1,0-0.5-0.1-0.6-0.2c0,0,0.1,0,0-0.1
				c0.2,0.1,0.2,0,0.2,0l0.2,0.1c0-0.1-0.1-0.2-0.2-0.2c0.1-0.1,0.2,0,0.4,0.1c0.1-0.1-0.3-0.1-0.3-0.2c0.1,0,0.1-0.2,0-0.3
				c0.1,0,0.1,0.1,0.2,0.1l-0.1-0.2c0,0,0.1,0,0.1,0c0-0.1-0.2-0.1-0.2-0.2c-0.2-0.2,0.5,0,0.2-0.2c0.1,0,0.1,0.1,0.2,0.1
				c-0.1-0.2-0.1-0.2-0.3-0.4l0.2,0c-0.2,0-0.4-0.2-0.5-0.4c-0.1,0-0.2,0-0.2,0l-0.1-0.2c0,0,0.1,0.1,0.2,0.1l0-0.1
				c0.1,0,0.2,0.1,0.3,0.2c-0.1,0-0.1,0-0.2,0c0.1,0.1,0.3,0.2,0.4,0.3c0,0,0,0,0-0.1c0,0,0.1,0.1,0.1,0.1c0,0,0,0-0.1-0.1l0.3,0.1
				l-0.1-0.1l0.2-0.1c-0.2-0.3-0.5-0.6-0.5-0.8c0.2,0.1,0.3,0.2,0.5,0.3c-0.3-0.1,0,0.2-0.1,0.3c0,0,0.1,0,0.2,0.1L47,34.4
				c0.2,0.1,0.2,0,0.2,0c-0.4-0.2-0.2-0.3-0.2-0.4c0.1,0.1,0.2,0.1,0.2,0.2c0.3,0.1-0.3-0.3-0.1-0.3c0,0,0,0,0,0.1
				c-0.1-0.1,0.1-0.2,0.2-0.1l0,0c0.1-0.1,0.2-0.4-0.1-0.6c0,0,0.3,0.2,0.4,0.2l-0.8-0.8c0.2,0.2,0.9,0.4,1,0.6c0.1,0,0.1,0,0.1-0.1
				c0,0-0.4-0.1-0.4-0.2c0.3,0.1,0.2,0,0.5,0.1c-0.1,0-0.4-0.2-0.4-0.3c0.1,0,0.4,0.2,0.4,0.2l-0.3-0.3c0.1,0.1,0.3,0.2,0.4,0.2
				c-0.1,0,0.1-0.1,0-0.2l-0.1,0c0.1-0.1-0.4-0.4-0.4-0.6c0.1,0.1,0.4,0.3,0.5,0.2c-0.2-0.1-0.8-0.6-0.9-0.8l0.1,0l-0.1-0.2
				c0.2,0.2,0.7,0.7,0.9,0.9c0.1,0,0.1,0.1,0.2,0c0.1,0,0.1,0.1,0.1,0.2l0.2-0.2c-0.2-0.1-0.1-0.3-0.3-0.4l0.1,0.3
				c-0.2-0.1-0.5-0.5-0.4-0.6c0.1,0,0.4,0.2,0.4,0.3c-0.1-0.1-0.1-0.2,0-0.2l0.1,0.1c0.1,0-0.2-0.3,0-0.3c0,0,0.3,0.1,0.2,0
				c-0.3-0.1-1-0.5-1.1-0.6c0,0,0.3,0,0.4,0c0.2,0,0.4,0.3,0.6,0.4c-0.1,0-0.1-0.1-0.1-0.1c0.1,0,0.2,0.1,0.2,0
				c-0.2-0.1,0.1-0.1-0.2-0.1c0-0.1,0.1-0.1,0.1-0.1c-0.1,0-0.4-0.3-0.4-0.4c0,0,0.1,0.1,0.2,0.1c0.1-0.1,0.2-0.2,0.3-0.3
				c0.1,0,0.1,0,0.2,0c0,0-0.1-0.1-0.1-0.1c0.2,0,0,0.1,0.2,0.1c-0.1-0.1-0.1-0.2-0.1-0.3c-0.2-0.1-0.1,0.1-0.1,0.2
				c-0.2-0.1-0.4-0.4-0.4-0.5c0-0.1,0.2,0,0.1,0c0.2-0.2-0.3-0.4,0-0.4c0.2,0,0.3,0.1,0.4,0.2c0,0.1-0.2,0.1-0.2,0.1l0.1,0
				c0,0.1,0,0.1,0,0.1c0.2,0,0.2-0.3,0.4-0.4c0-0.1,0-0.1-0.1-0.1l0,0.1c-0.1,0-0.1-0.2-0.2-0.1c0-0.1-0.1-0.2,0-0.3l0.1,0.1
				c0,0-0.1,0-0.1,0.1c0-0.1,0.3,0,0.1-0.2l-0.1,0c0-0.1-0.1-0.3,0-0.3c-0.1,0,0,0-0.2,0c0.2,0.1-0.2,0.2,0.1,0.2
				c-0.2,0-0.1,0.1-0.3,0c0,0,0.1,0,0,0.1c0,0,0,0,0,0l0,0l0,0c0,0,0,0,0,0c0,0,0.1,0,0.1,0c0.1,0.1,0,0.2,0,0.3c0,0,0,0-0.1-0.1
				l0,0.1c-0.1-0.1-0.2,0-0.2-0.1l-0.1,0.1c-0.1,0-0.2,0.1-0.1,0.1c-0.1,0,0.1,0.2,0,0.1l0,0.2l0,0c-0.1,0.1,0,0.4-0.3,0.4
				c0,0.1,0,0.1-0.1,0.2l-0.1,0c0,0.1-0.2,0.1-0.1,0.2c-0.3-0.1-0.2,0.2-0.4,0.3l0.1,0.1c-0.1,0.1-0.1,0.2,0,0.3l0.1,0.1
				c0.1,0.1-0.2,0.1-0.3,0.3c0,0,0-0.1,0-0.1c-0.4,0,0.1,0.4-0.3,0.4c0,0.1,0,0.1,0,0.1c0,0,0,0,0,0c0,0,0,0,0,0c0,0-0.1,0-0.1,0
				c0,0,0.1,0,0.1,0c0,0,0,0.1,0,0.1l-0.2-0.1c0,0,0,0,0,0c-0.1,0,0.1,0.1,0.2,0.1c0,0,0,0.1,0.1,0.1c-0.3-0.1,0,0.1-0.3,0
				c0.1,0.1,0,0.2,0.3,0.4c0,0-0.1,0-0.1,0c-0.1,0-0.1,0-0.1,0.1l-0.2-0.1l0.2,0.2c-0.2,0-0.2,0-0.4-0.2c0.2,0.3,0,0.2,0.2,0.4
				L46.4,33c0,0,0.1,0.2,0,0.2c-0.3-0.1-0.3,0.4-0.7,0.5c0.4,0.2-0.2,0,0.1,0.2c-0.1,0-0.2,0-0.2-0.1c0,0.2-0.3,0.1,0,0.3
				c-0.1,0-0.1-0.1-0.2-0.1c0,0,0.1,0.1,0,0.1c-0.1,0-0.1-0.1-0.1-0.1c-0.1,0.1,0.2,0.3,0.5,0.5c-0.2,0-0.2,0,0,0.2
				c-0.1,0-0.2,0-0.2-0.1c0,0-0.3,0.2-0.1,0.3c-0.1,0,0,0,0,0.1c-0.1,0.1-0.1,0.1-0.1,0.2l0.1,0c0.3,0.2,0,0.1,0,0.2l0,0
				c-0.3,0.1,0.1,0.1-0.3,0.2l0.2,0.1c0.4,0.2-0.3,0-0.2,0.2l0.1,0c0.1,0.1-0.6-0.1-0.7-0.1c0,0,0,0-0.1-0.1c-0.3,0,0.2,0.1,0.2,0.3
				c-0.1,0-0.3-0.2-0.4-0.1c-0.1,0,0.3,0.4,0,0.4c0.1,0,0.2,0.1,0.2,0.1c0,0.1-0.5,0-0.2,0.2c0,0-0.1,0-0.1,0c0,0.1,0,0.3,0.2,0.4
				c-0.6-0.3,0.1,0.5-0.4,0.2L44,37.1L44,37c-0.1,0.1,0,0.2,0.1,0.3c0,0-0.1,0-0.1-0.1c-0.2,0.1-0.2,0.1,0,0.4l-0.2-0.1
				c0.1,0.1-0.4,0.1-0.3,0.4c0,0,0,0-0.1-0.1c0.1,0.3-0.6,0.2-0.1,0.6l0.1,0.2c0.1-0.1,0.2,0.2,0.4,0.1c0,0.1-0.2,0.1-0.2,0l0,0
				c-0.3-0.2-0.2,0.1-0.4,0c-0.1,0.3-0.4,0.5-0.6,0.8l0.2,0.1l-0.1,0.1c-0.1,0-0.2,0-0.1-0.1c-0.1,0,0,0.2,0.1,0.2
				c-0.1,0.1-0.2-0.2-0.2-0.1l0,0.1l0,0c0.1,0.1,0.1,0.1,0.1,0.2c-0.1,0-0.1,0-0.1,0c0,0,0,0,0,0l-0.1,0.1l0.2,0
				c0,0.1-0.1,0.1,0.1,0.1c-0.3,0-0.3,0.4-0.4,0.4c0.1,0.1,0,0.2,0,0.3c0,0,0.2,0.1,0.1,0.1c-0.3-0.2-0.2,0.1-0.4,0.1
				c0.2,0-0.1,0.3,0.1,0.3c-0.1,0.1-0.1,0-0.2,0c0,0.2-0.2,0.3-0.3,0.6c0,0,0.1,0,0.1,0.1l-0.2,0c0,0,0.1,0.1,0,0.1c0,0,0.1,0,0.1,0
				c-0.1,0.2-0.2,0.4-0.3,0.6c-0.1,0.2-0.2,0.4-0.3,0.6c0-0.1,0,0,0,0c0,0,0,0,0,0L41,43.9c0,0-0.1,0.2-0.1,0.2l0-0.1
				c0,0.1,0.1-0.1,0.1-0.1c0-0.1,0.2-0.2,0.2-0.3c0,0,0,0,0,0c0,0,0-0.1,0.1-0.1l0,0c0.1-0.2,0.2-0.3,0.4-0.5l-0.1,0
				c0,0,0.1,0,0.1-0.1c0-0.1-0.1,0.1-0.1,0c0.1,0,0.2-0.3,0.4-0.3c0.1-0.1-0.1,0,0-0.1l0.1,0l0,0c0,0,0.1,0,0.1,0c0,0,0,0,0,0.1
				c0.1,0,0.1-0.2,0.1-0.2l-0.1,0.1c0.1-0.2,0.3-0.4,0.4-0.7l-0.1,0c0-0.2,0.1-0.1,0.2-0.3l0,0c0-0.1,0-0.1,0-0.2
				c0,0.1,0.2,0,0.2,0.1c0-0.2,0-0.1-0.1-0.3l0.1,0c-0.1-0.1-0.1-0.1-0.1-0.2c0,0.1,0.2,0,0.2,0.1c0.3-0.1,0-0.4,0.3-0.3
				c-0.2-0.2-0.2,0.1-0.3,0c-0.1,0-0.1-0.2-0.1-0.2c0-0.1,0.4,0.1,0.5-0.1c0,0,0,0,0,0c0.1,0,0-0.1,0.1-0.2
				c-0.1-0.1,0.1-0.1-0.1-0.2l0,0.2c0-0.1-0.2-0.3,0-0.4c0,0,0.1,0.1,0.1,0.1c0.1,0,0-0.1,0.1-0.1c0.2,0.1,0,0.2,0.1,0.3
				c0.1,0-0.1-0.2,0.1-0.1c-0.3-0.2,0.1-0.1,0-0.3l0.1,0.1c0,0-0.1-0.1,0-0.1l0.1,0.1c-0.1-0.2,0.2-0.1,0.2-0.2
				c-0.1,0.1-0.2-0.1-0.3,0c-0.1-0.3,0.4,0.1,0.5-0.2c0,0-0.2,0.1-0.2,0c0.1,0,0.1,0,0.2,0c0.1-0.2-0.2-0.1-0.2-0.2
				c0.2,0,0-0.1,0-0.2l0.1,0.1c0.2-0.1-0.3-0.2-0.1-0.3l0.2,0.2l0-0.1l0.2,0.1c-0.1-0.1,0-0.2,0.1-0.2c-0.1,0-0.3-0.2-0.2-0.2
				c0.1,0,0.1,0.1,0.2,0c0.1,0.1,0.2,0.2,0,0.1c0,0,0.1,0.1,0.1,0.1c0.1,0,0.1-0.1,0.1-0.2c0,0,0,0-0.1,0l-0.1-0.3
				c0.1,0,0.1,0.1,0.1,0.1c0,0-0.1-0.1,0-0.1c0.1,0.1,0.2,0.1,0.3,0.2l-0.1-0.2c0.1,0,0.2,0,0.2,0.1c0.1,0-0.1-0.3,0-0.4
				c0,0,0,0,0-0.1c0.1-0.1,0.3-0.1,0.2-0.3l0.3,0.1c0-0.1-0.3-0.1-0.3-0.3c0-0.1,0.2,0.1,0.3,0.1c-0.1-0.1-0.3-0.3,0-0.3
				C45.6,37.7,45.5,37.7,45.5,37.7z M46.1,36.6c0,0,0.1,0.1,0,0.1C45.9,36.5,46,36.6,46.1,36.6z M46.6,34.7
				C46.6,34.7,46.6,34.7,46.6,34.7C46.5,34.7,46.5,34.7,46.6,34.7z M48.2,29.4L48.2,29.4C48.2,29.5,48.2,29.5,48.2,29.4z M48.4,29.4
				C48.3,29.4,48.3,29.4,48.4,29.4C48.3,29.4,48.3,29.4,48.4,29.4C48.3,29.4,48.4,29.4,48.4,29.4z M42.5,40.1L42.5,40.1
				C42.6,40.2,42.5,40.1,42.5,40.1z"/>
			<path fill="#963A1F" d="M46.7,35C46.7,35,46.7,35,46.7,35C46.6,35,46.7,35,46.7,35z"/>
			<polygon fill="#963A1F" points="45.2,38.4 45.2,38.5 45.2,38.5 			"/>
			<path fill="#963A1F" d="M48.6,31.5C48.6,31.5,48.5,31.5,48.6,31.5C48.5,31.5,48.6,31.5,48.6,31.5z"/>
			<path fill="#963A1F" d="M48.5,28.8L48.5,28.8C48.5,28.8,48.5,28.8,48.5,28.8C48.6,28.8,48.5,28.8,48.5,28.8z"/>
			<path fill="#963A1F" d="M49.5,28.6C49.5,28.6,49.5,28.6,49.5,28.6L49.5,28.6C49.4,28.6,49.4,28.6,49.5,28.6z"/>
			<path fill="#963A1F" d="M48.9,28.9C49,29,49,28.9,48.9,28.9L48.9,28.9C48.9,28.8,48.9,28.8,48.9,28.9z"/>
			<path fill="#963A1F" d="M49,28.8C49,28.8,49,28.8,49,28.8C49,28.8,49,28.8,49,28.8z"/>
			<path fill="#963A1F" d="M48.4,29.2C48.4,29.2,48.3,29.1,48.4,29.2C48.2,29.1,48.4,29.4,48.4,29.2z"/>
			<polygon fill="#963A1F" points="49.2,29 49.1,29 49.2,29.1 			"/>
			<path fill="#963A1F" d="M48.9,29.3L48.9,29.3C49,29.3,49,29.3,48.9,29.3C48.9,29.3,48.9,29.3,48.9,29.3z"/>
			<path fill="#963A1F" d="M49,29.2C49,29.2,49,29.2,49,29.2C49,29.2,49,29.2,49,29.2z"/>
			<polygon fill="#963A1F" points="49.2,29.1 49.1,29.2 49.1,29.2 			"/>
			<path fill="#963A1F" d="M48.5,30.1L48.5,30.1C48.5,30.2,48.5,30.2,48.5,30.1C48.5,30.1,48.5,30.1,48.5,30.1z"/>
			<path fill="#963A1F" d="M48.9,30c0,0-0.1,0-0.1,0L48.9,30L48.9,30z"/>
			<path fill="#963A1F" d="M48.9,30.3c0,0,0.1,0.2,0.1,0.1C48.9,30.3,48.9,30.2,48.9,30.3z"/>
			<polygon fill="#963A1F" points="48,31.4 48,31.3 47.7,31.2 			"/>
			<path fill="#963A1F" d="M48.3,32.8c0.1-0.1-0.2-0.1-0.1-0.2c-0.1-0.1-0.1,0-0.2,0C48.1,32.7,48,32.7,48.3,32.8z"/>
			<path fill="#963A1F" d="M48,32.6C48,32.6,48,32.6,48,32.6C48,32.6,48,32.6,48,32.6z"/>
			<polygon fill="#963A1F" points="41,44 40.9,44 41,44 			"/>
			<path fill="#963A1F" d="M40.9,44.1L40.9,44.1L40.9,44.1C40.9,44.2,40.9,44.2,40.9,44.1z"/>
			<path fill="#963A1F" d="M46.6,36.7L46.6,36.7c-0.1-0.1-0.1,0-0.2,0L46.6,36.7z"/>
			<polygon fill="#963A1F" points="46,37.4 46,37.4 45.8,37.3 			"/>
			<path fill="#963A1F" d="M45.8,38.2c0,0,0-0.1,0-0.1C45.9,38.1,45.6,38,45.8,38.2z"/>
		</g>
		<path fill="#F2F2F2" d="M33.1,33.6l0.2-0.5c0,0,7-0.9,16,10.4c0,0,1.7-12.1-10.9-17.6l0.3-0.5l0.3-0.5c0,0,13.5,4.8,10.4,19.1
			C49.5,44.1,40.1,33.1,33.1,33.6z"/>
		<ellipse fill="#FFFFFF" cx="45.6" cy="36.2" rx="3.8" ry="5.4"/>
		<ellipse fill="#FFFFFF" cx="67.5" cy="36.2" rx="3.8" ry="5.4"/>
		<ellipse fill="#3E5690" cx="67.5" cy="36.2" rx="1.6" ry="3.1"/>
		<ellipse fill="#3E5690" cx="45.6" cy="36.2" rx="1.6" ry="3.1"/>
		<g>
			<path fill="#3E5690" d="M58.1,46.9c0,0,0.3-2.1,2.4-2.8C60.5,44.1,61.1,45.6,58.1,46.9z"/>
			<path fill="#3E5690" d="M55,46.9c0,0-0.3-2.1-2.4-2.8C52.6,44.1,52,45.6,55,46.9z"/>
		</g>
		<path fill="#3E5690" d="M56.5,52.2v4.6c-0.7,0-1.3,0-1.8-0.1c-1.2-0.1-2.3-0.4-3.2-1.1c-0.4-0.3-0.9-0.5-1.2-0.8
			c-2.6-1.4-4.9-3.3-7-5.4c-3.3-3.3-5.4-6.1-6.4-7.4c-0.5-0.6-1.3-1-2.1-0.9l2.2-1.8l0.1,1.5c0,0.4,0.2,0.9,0.4,1.2
			c1.2,1.6,2.4,2.7,3.4,3.3c1,0.7,1.7,0.9,1.7,0.9c2,0.1,3.9,0.8,5.4,2l0.1,0.1c0.2,0.1,0.4,0.2,0.7,0.3l0,0
			c0.5,0.1,0.9,0.3,1.3,0.5l3.3,2.2l0.2,0.1c0.4,0.2,0.9,0.4,1.4,0.5l0.2,0C55.7,52.1,56.1,52.2,56.5,52.2z"/>
		<path fill="#3E5690" d="M69.2,52.2l-7.9,4.4c-1.4,0.2-3.2,0.2-4.8,0.2v-4.6c4.2,0.3,6.1-2.2,6.1-2.2L69.2,52.2z"/>
		<path fill="#FFFFFF" d="M49.2,53.1c0,0-1.8,0.8-1.5,2.3c0.3,1.6,1.6,1.7,1.6,1.7s2.4,0.1,2.8-1.1c0,0-0.7-1.8-2-2.6
			C50.1,53.4,49.6,52.9,49.2,53.1z"/>
		<path fill="#FFFFFF" d="M44.8,46.6c0,0,0.7,0.2,1.4,0.5c0.6,0.2,1,0.5,1.5,0.8c0.4,0.3,0.6,0.6,0.9,0.7c0,0-1,1.9-2.4,1.3
			C44.8,49.4,44.2,48.3,44.8,46.6z"/>
		<path fill="#C7502B" d="M55,54.4c0,0-0.2,1.1,0.9,1.4c0.5,0.2,1.1-0.1,1.5-0.4c1.1-0.9,2.4-1.5,3.8-1.5c0.3,0,0.7,0,1,0.1
			c1.9,0.2,8.1-1.9,11.5-3.8c3.2-1.8,6.8-6.4,6.3-12s-1.3-5.8-2.1-5.7c-0.8,0.2-1.6,0.7-1.6,3c0,1.7,0.6,4.7-0.8,7.4
			c-0.8,1.5-2.3,2.6-3.9,3.2c-0.9,0.3-2.1,0.6-3.2,0.7c-0.1,0-0.2,0-0.4,0.1c-0.8,0.4-4.5,2.2-5.8,3.5c-0.8,0.8-1.3,1.2-3,1.6
			c-1.1,0.3-2.4,0.4-4,0.1C55.2,52,55,53.5,55,54.4z"/>
		<path fill="#FFFFFF" d="M50.2,49.2c0,0,0.9,0.5,1.9,1.2c0.5,0.4,1,0.7,1.6,1.1c0,0-0.8,1.6-2.3,1.1S50,50.4,50.2,49.2z"/>
		<path fill="#FFFFFF" d="M68.1,46.8c0,0-0.5,0.2-1.2,0.6c-0.6,0.3-1.1,0.4-1.6,0.8c-0.4,0.3-0.3,0.2-1,0.6c0,0,1.1,2.1,2.5,1.5
			C68.3,49.7,68.8,48.4,68.1,46.8z"/>
		<path fill="#FFFFFF" d="M62.9,49.7c0,0-0.8,0.6-1.8,1.3c-0.5,0.4-1.1,0.5-1.7,0.8c0,0,0.8,1.6,2.3,1S63.1,50.9,62.9,49.7z"/>
		<path fill="#FFFFFF" d="M64,53.7c0,0,1.8,0.8,1.5,2.3c-0.3,1.6-1.6,1.7-1.6,1.7s-2.4,0.1-2.8-1.1c0,0,0.7-1.8,2-2.6
			C63,54,63.5,53.5,64,53.7z"/>
	</g>
	<g>
		<path fill="#C7502B" d="M44.2,64.1h2.4c1.1,0,1.6,0.6,1.6,1.7v2.9c0,1.1-0.5,1.7-1.6,1.7h-1.1V74h-1.3V64.1z M45.5,69.2h0.8
			c0.3,0,0.5-0.2,0.5-0.6v-2.7c0-0.4-0.2-0.6-0.6-0.6h-0.8V69.2z"/>
		<path fill="#C7502B" d="M50.5,74h-1.3v-8.2c0-1.1,0.5-1.7,1.6-1.7h1c1.1,0,1.6,0.6,1.6,1.7V74H52v-3.6h-1.5V74z M52,69.2v-3.3
			c0-0.4-0.2-0.6-0.6-0.6h-0.4c-0.4,0-0.6,0.2-0.6,0.6v3.3H52z"/>
		<path fill="#C7502B" d="M54.5,64.1h2.4c1.1,0,1.6,0.6,1.6,1.7v2.9c0,1.1-0.5,1.7-1.6,1.7h-1.1V74h-1.3V64.1z M55.8,69.2h0.8
			c0.3,0,0.5-0.2,0.5-0.6v-2.7c0-0.4-0.2-0.6-0.6-0.6h-0.8V69.2z"/>
		<path fill="#C7502B" d="M63.8,64.1v8c0,1.2-0.5,1.9-1.6,1.9h-1.1c-1.1,0-1.6-0.6-1.6-1.9v-8h1.3v8c0,0.4,0.2,0.6,0.6,0.6h0.5
			c0.4,0,0.5-0.2,0.5-0.6v-8H63.8z"/>
		<path fill="#C7502B" d="M67.6,66.8v-0.9c0-0.4-0.2-0.6-0.6-0.6h-0.2c-0.4,0-0.6,0.2-0.6,0.6v1.6c0,0.2,0,0.3,0.1,0.4
			c0.1,0.1,0.2,0.1,0.4,0.2l1.2,0.7c0.3,0.2,0.5,0.3,0.6,0.4c0.1,0.1,0.2,0.2,0.3,0.3c0.1,0.1,0.1,0.4,0.1,0.7v2.1
			c0,1.1-0.5,1.7-1.6,1.7h-0.8c-1.1,0-1.6-0.6-1.6-1.8v-0.5h1.3v0.5c0,0.4,0.2,0.6,0.6,0.6H67c0.3,0,0.5-0.2,0.5-0.6v-1.7
			c0-0.2,0-0.3-0.1-0.4c-0.1-0.1-0.2-0.1-0.4-0.2l-1.2-0.7c-0.3-0.1-0.5-0.3-0.6-0.4c-0.1-0.1-0.2-0.2-0.3-0.4
			c-0.1-0.2-0.1-0.4-0.1-0.6v-2c0-1.1,0.5-1.7,1.6-1.7h0.8c1.1,0,1.6,0.6,1.6,1.7v1H67.6z"/>
	</g>
</g>
<g>
	<path fill="#3B7E97" d="M56.5,89.1c-24.3,0-44.1-19.8-44.1-44.1S32.2,0.9,56.5,0.9s44.1,19.8,44.1,44.1S80.9,89.1,56.5,89.1z
		 M56.5,6.4C35.3,6.4,18,23.7,18,45s17.3,38.6,38.6,38.6S95.1,66.3,95.1,45S77.8,6.4,56.5,6.4z"/>
</g>
<g>
</g>
<g>
</g>
<g>
</g>
<g>
</g>
<g>
</g>
<g>
</g>
</svg>
